<?xml version="1.0" encoding="UTF-8" standalone="no"?>
<svg width="240" height="240" viewBox="0 0 240 240" xmlns="http://www.w3.org/2000/svg">
  <!-- 红色圆形背景 -->
  <circle cx="120" cy="120" r="115" fill="#de2910" />
  
  <!-- 金色边框 -->
  <circle cx="120" cy="120" r="115" fill="none" stroke="#ffde00" stroke-width="5" />
  
  <!-- 中心五角星 -->
  <path 
    d="M120,30 L134.7,75.3 L182.3,75.3 L144.8,103.4 L159.5,148.7 L120,122.6 L80.5,148.7 L95.2,103.4 L57.7,75.3 L105.3,75.3 Z" 
    fill="#ffde00" />
  
  <!-- 底部装饰 -->
  <path 
    d="M40,140 C60,180 120,190 200,140" 
    fill="none" 
    stroke="#ffde00" 
    stroke-width="4" />
  
  <!-- 麦穗左 -->
  <g transform="translate(60,140) rotate(-20)">
    <path 
      d="M0,0 C10,-20 10,-40 5,-60" 
      fill="none" 
      stroke="#ffde00" 
      stroke-width="3" />
    <path 
      d="M0,-15 L-8,-10 M0,-30 L-8,-25 M0,-45 L-8,-40" 
      fill="none" 
      stroke="#ffde00" 
      stroke-width="2" />
  </g>
  
  <!-- 麦穗右 -->
  <g transform="translate(180,140) rotate(20)">
    <path 
      d="M0,0 C-10,-20 -10,-40 -5,-60" 
      fill="none" 
      stroke="#ffde00" 
      stroke-width="3" />
    <path 
      d="M0,-15 L8,-10 M0,-30 L8,-25 M0,-45 L8,-40" 
      fill="none" 
      stroke="#ffde00" 
      stroke-width="2" />
  </g>
  
  <!-- 下方文字 - 南武民主共和国 -->
  <path 
    d="M70,170 C90,175 150,175 170,170" 
    fill="none" 
    stroke="#ffde00" 
    stroke-width="0" />
  <text 
    x="120" 
    y="190" 
    font-family="Arial, sans-serif" 
    font-size="16" 
    font-weight="bold" 
    text-anchor="middle" 
    fill="#ffde00">南武民主共和国</text>
</svg> 